<?xml version="1.0" encoding="UTF-8"?>
<svg id="Calque_1" data-name="Calque 1" xmlns="http://www.w3.org/2000/svg" version="1.1" viewBox="0 0 392.4 141.7">
  <defs>
    <style>
      .cls-1 {
        fill: #094754;
      }

      .cls-1, .cls-2 {
        stroke-width: 0px;
      }

      .cls-2 {
        fill: #83519b;
      }
    </style>
  </defs>
  <g id="easy-access">
    <g>
      <path class="cls-2" d="M40.1,61.1c-1.9,0-3.5.6-4.8,1.7-1.4,1.1-2.1,2.7-2.3,4.6h14.5c-.2-2-1-3.5-2.3-4.6-1.3-1.1-3-1.7-5-1.7Z"/>
      <path class="cls-2" d="M63.5,72.9c-.9.7-1.4,1.7-1.4,3s.5,2.1,1.4,2.8c.9.7,2.1,1.1,3.7,1.1,2.4,0,4.2-.6,5.5-1.9s2-3,2-5.1v-.9h-7.1c-1.8,0-3.1.3-4.1,1h0Z"/>
      <path class="cls-2" d="M124,88.2c-.6,1.6-1.2,2.9-1.7,3.7-.5.9-1.2,1.5-2,2-.8.4-1.8.7-3.1.7h-6.1v-5h4c1.1,0,1.9-.2,2.3-.5.4-.3.9-1.1,1.3-2.3l1.1-2.6-10.6-27.3h6.1l7.6,20.9,7.4-20.9h2.1v-17.8L74.7,2.3c-4.9-3.1-11.1-3.1-16,0L1.1,39.1v61.4l57.2,38.7c5,3.4,11.6,3.4,16.7,0l57.2-38.7v-33.6l-8.3,21.3h0ZM53.1,71.6h-20.4v.3c.1,2.4.9,4.2,2.2,5.6,1.3,1.4,3.1,2.1,5.3,2.1s3.2-.4,4.4-1.2c1.2-.8,2-2,2.4-3.5h5.7c-.5,2.8-1.8,5-4,6.8s-4.9,2.6-8.1,2.6-5.3-.6-7.4-1.7-3.7-2.8-4.9-4.8-1.7-4.5-1.7-7.2.6-5.2,1.7-7.3,2.7-3.7,4.6-4.9,4.3-1.7,6.8-1.7,4.9.5,6.9,1.6,3.6,2.6,4.7,4.5,1.7,4.2,1.8,6.8c0,.7,0,1.4-.2,2.2h0ZM83.3,83.9h-3c-1.8,0-3-.4-3.8-1.1s-1.2-1.8-1.2-3.2c-2,3.1-5,4.6-8.9,4.6s-5.5-.7-7.3-2.1-2.8-3.3-2.8-5.8,1-4.9,3-6.4,4.8-2.3,8.6-2.3h6.8v-1.6c0-1.5-.5-2.7-1.6-3.6s-2.5-1.3-4.4-1.3-3,.4-4.1,1.1c-1.1.7-1.7,1.7-1.9,2.9h-5.6c.3-2.7,1.5-4.8,3.6-6.3s4.9-2.3,8.3-2.3,6.4.9,8.4,2.5,3,4.1,3,7.3v10.7c0,1.3.6,1.9,1.8,1.9h1.1v5h0ZM107,80.3c-1,1.3-2.3,2.3-4.1,3s-3.7,1-5.8,1c-3.6,0-6.6-.8-8.8-2.5s-3.4-3.9-3.5-6.8h5.5c.1,1.4.8,2.6,2,3.5,1.2.9,2.8,1.4,4.7,1.4s3.1-.3,4.2-1c1.1-.7,1.6-1.5,1.6-2.6s-.2-1.6-.7-2.1c-.5-.5-1.2-.8-2-1s-2.1-.4-3.8-.6c-2.4-.3-4.3-.7-5.8-1.1s-2.8-1.2-3.7-2.3-1.4-2.4-1.4-4.2.5-3.1,1.4-4.4,2.2-2.3,3.9-3c1.6-.7,3.5-1.1,5.6-1.1,3.4,0,6.2.8,8.3,2.3s3.3,3.7,3.5,6.4h-5.6c-.1-1.2-.8-2.3-1.9-3-1.1-.8-2.5-1.2-4.1-1.2s-3,.3-4,.9c-1,.6-1.5,1.5-1.5,2.6s.3,1.4.8,1.8,1.2.7,1.9.8c.8.2,2,.3,3.7.6,2.3.2,4.3.6,5.9,1.1,1.6.5,2.8,1.3,3.8,2.4.9,1.1,1.4,2.6,1.4,4.5s-.5,3.2-1.5,4.5h0Z"/>
    </g>
    <path class="cls-1" d="M192.3,68.8v15h-7.5v-15.3c0-4.1-1.6-6.2-4.7-6.2s-2.9.6-3.9,1.7c-1,1.1-1.5,2.8-1.5,4.8v14.9h-7.5v-15.3c0-4.1-1.6-6.2-4.8-6.2s-2.9.6-3.9,1.8-1.4,2.8-1.4,4.8v14.9h-7.5v-27.3h6.5l.7,3.4c.9-1.2,2-2.1,3.3-2.7s2.9-1,4.8-1c3.9,0,6.6,1.5,8.1,4.6,1-1.5,2.3-2.6,3.9-3.4,1.6-.8,3.4-1.2,5.5-1.2,2.9,0,5.3,1,7.1,2.9,1.8,1.9,2.8,5.2,2.8,9.7h0Z"/>
    <path class="cls-1" d="M197.2,77.4c-1.2-2.1-1.8-4.6-1.8-7.3s.6-5.2,1.8-7.3c1.2-2.1,2.9-3.7,5-4.9s4.7-1.7,7.5-1.7,5.4.6,7.5,1.7,3.8,2.8,5,4.9c1.2,2.1,1.8,4.6,1.8,7.3s-.6,5.2-1.8,7.3c-1.2,2.1-2.9,3.7-5,4.9-2.2,1.1-4.7,1.7-7.5,1.7s-5.4-.6-7.5-1.7c-2.2-1.1-3.8-2.8-5-4.9h0ZM216.6,70.1c0-2.3-.6-4.2-1.8-5.7s-2.9-2.2-5-2.2-3.7.7-4.9,2.2c-1.2,1.4-1.8,3.3-1.8,5.7s.6,4.2,1.8,5.7,2.8,2.2,4.9,2.2,3.7-.7,5-2.2c1.2-1.4,1.8-3.3,1.8-5.7Z"/>
    <path class="cls-1" d="M254.2,68.9v14.8h-7.5v-14.4c0-4.7-1.8-7-5.5-7s-3.4.7-4.5,2-1.6,3.1-1.6,5.5v13.9h-7.5v-27.2h6.5l.7,3.4c.9-1.2,2.1-2.1,3.4-2.7,1.3-.7,3-1,5-1,3.2,0,5.8,1,7.8,3,2,2,3.1,5.2,3.1,9.8h0Z"/>
    <path class="cls-1" d="M266.5,49.3c0,1.2-.4,2.2-1.2,3-.8.8-1.8,1.2-3.1,1.2s-2.3-.4-3.1-1.2c-.8-.8-1.2-1.8-1.2-3s.4-2.2,1.2-3,1.9-1.2,3.1-1.2,2.3.4,3.1,1.2c.8.8,1.2,1.8,1.2,3ZM265.9,56.5v27.2h-7.5v-27.2h7.5Z"/>
    <path class="cls-1" d="M270.1,62.8v-6.3h4.5v-7.6h7.5v7.6h6.2v6.3h-6.2v11.9c0,.9.2,1.6.6,2.1s1.1.6,2,.6h3.9v6.3h-6.2c-5.2,0-7.8-2.6-7.8-7.8v-13.1s-4.5,0-4.5,0Z"/>
    <path class="cls-1" d="M318.7,68.9v14.8h-7.5v-14.4c0-2.3-.5-4-1.4-5.2s-2.3-1.8-4.1-1.8-3.4.7-4.5,2-1.6,3.1-1.6,5.5v14h-7.5v-37.1h7.5v13.2c2-2.4,4.7-3.7,8-3.7s5.9,1,7.9,3c2.1,2,3.1,5.2,3.1,9.8h0Z"/>
    <path class="cls-1" d="M323.6,77.4c-1.2-2.1-1.8-4.6-1.8-7.3s.6-5.2,1.8-7.3c1.2-2.1,2.9-3.7,5-4.9s4.7-1.7,7.5-1.7,5.4.6,7.5,1.7,3.8,2.8,5,4.9c1.2,2.1,1.8,4.6,1.8,7.3s-.6,5.2-1.8,7.3c-1.2,2.1-2.9,3.7-5,4.9-2.2,1.1-4.7,1.7-7.5,1.7s-5.4-.6-7.5-1.7-3.8-2.8-5-4.9h0ZM342.9,70.1c0-2.3-.6-4.2-1.8-5.7s-2.9-2.2-5-2.2-3.7.7-4.9,2.2c-1.2,1.4-1.8,3.3-1.8,5.7s.6,4.2,1.8,5.7,2.8,2.2,4.9,2.2,3.7-.7,5-2.2c1.2-1.4,1.8-3.3,1.8-5.7Z"/>
    <path class="cls-1" d="M370.6,63.3h-3c-2.1,0-3.7.6-4.7,1.9s-1.5,3-1.5,5.2v13.3h-7.5v-27.2h6.8l.7,4.1c.8-1.3,1.8-2.4,3-3,1.2-.7,2.8-1,4.8-1h1.3v6.8h0Z"/>
    <path class="cls-1" d="M380.3,56.7c.7-.4,1.5-.6,2.4-.6s1.7.2,2.4.6,1.3,1,1.7,1.7c.4.7.6,1.5.6,2.4s-.2,1.7-.6,2.4-1,1.3-1.7,1.7-1.5.6-2.4.6-1.7-.2-2.4-.6c-.7-.4-1.3-1-1.7-1.7-.4-.7-.6-1.5-.6-2.4s.2-1.7.6-2.4,1-1.3,1.7-1.7h0ZM384.7,57.5c-.6-.3-1.2-.5-1.9-.5s-1.3.2-1.9.5c-.6.3-1,.8-1.3,1.4-.3.6-.5,1.2-.5,2s.2,1.4.5,1.9c.3.6.8,1,1.3,1.3s1.2.5,1.9.5,1.4-.2,1.9-.5c.6-.3,1-.8,1.3-1.4s.5-1.2.5-1.9-.2-1.4-.5-1.9-.8-1-1.3-1.4h0ZM384.4,58.7c.4.3.5.7.5,1.2s-.1.7-.3,1-.5.4-.9.5l1.2,2.1h-1.1l-1.1-1.9h-.8v1.9h-1v-5.2h2c.6,0,1.1.2,1.5.5h0ZM382.9,60.7c.3,0,.5,0,.7-.2s.3-.4.3-.6,0-.5-.3-.6c-.2-.1-.4-.2-.7-.2h-.9v1.7h.9,0Z"/>
  </g>
</svg>